<svg width="81" height="56" viewBox="0 0 81 56" fill="none" xmlns="http://www.w3.org/2000/svg">
<rect x="0.0431824" y="0.73822" width="80" height="55" rx="5" fill="#480505"/>
<g filter="url(#filter0_d_79_5)">
<path d="M9.80455 39.7382V16.4655H19.5091C21.2515 16.4655 22.7098 16.7117 23.8841 17.2041C25.0659 17.6966 25.9523 18.3859 26.5432 19.2723C27.1417 20.1587 27.4409 21.1852 27.4409 22.3519C27.4409 23.2382 27.2553 24.0299 26.8841 24.7269C26.5129 25.4163 26.0015 25.9882 25.35 26.4428C24.6985 26.8973 23.9447 27.2155 23.0886 27.3973V27.6246C24.028 27.67 24.8955 27.9238 25.6909 28.3859C26.4939 28.8481 27.1379 29.492 27.6227 30.3178C28.1076 31.1359 28.35 32.1056 28.35 33.2269C28.35 34.4769 28.0318 35.5943 27.3955 36.5791C26.7591 37.5564 25.8386 38.3291 24.6341 38.8973C23.4295 39.4579 21.9674 39.7382 20.2477 39.7382H9.80455ZM15.4295 35.2041H18.9068C20.1265 35.2041 21.0242 34.9731 21.6 34.5109C22.1833 34.0488 22.475 33.4049 22.475 32.5791C22.475 31.9806 22.3348 31.4655 22.0545 31.0337C21.7742 30.5943 21.3765 30.2572 20.8614 30.0223C20.3462 29.7799 19.7288 29.6587 19.0091 29.6587H15.4295V35.2041ZM15.4295 26.0337H18.5432C19.1568 26.0337 19.7023 25.9314 20.1795 25.7269C20.6568 25.5223 21.028 25.2269 21.2932 24.8405C21.5659 24.4541 21.7023 23.9882 21.7023 23.4428C21.7023 22.6625 21.4258 22.0488 20.8727 21.6019C20.3197 21.1549 19.5735 20.9314 18.6341 20.9314H15.4295V26.0337ZM43.6341 23.4428C43.5583 22.6094 43.2212 21.9617 42.6227 21.4996C42.0318 21.0299 41.1871 20.795 40.0886 20.795C39.3614 20.795 38.7553 20.8897 38.2705 21.0791C37.7856 21.2685 37.422 21.5299 37.1795 21.8632C36.9371 22.189 36.8121 22.564 36.8045 22.9882C36.7894 23.3367 36.8576 23.6435 37.0091 23.9087C37.1682 24.1738 37.3955 24.4087 37.6909 24.6132C37.9939 24.8102 38.3576 24.9844 38.7818 25.1359C39.2061 25.2875 39.6833 25.42 40.2136 25.5337L42.2136 25.9882C43.3652 26.2382 44.3803 26.5716 45.2591 26.9882C46.1455 27.4049 46.8879 27.9011 47.4864 28.4769C48.0924 29.0526 48.5508 29.7155 48.8614 30.4655C49.172 31.2155 49.3311 32.0564 49.3386 32.9882C49.3311 34.4579 48.9598 35.7193 48.225 36.7723C47.4902 37.8253 46.4333 38.6322 45.0545 39.1928C43.6833 39.7534 42.028 40.0337 40.0886 40.0337C38.1417 40.0337 36.4447 39.742 34.9977 39.1587C33.5508 38.5753 32.4258 37.689 31.6227 36.4996C30.8197 35.3102 30.4068 33.8064 30.3841 31.9882H35.7705C35.8159 32.7382 36.0167 33.3632 36.3727 33.8632C36.7288 34.3632 37.2174 34.742 37.8386 34.9996C38.4674 35.2572 39.1947 35.3859 40.0205 35.3859C40.778 35.3859 41.422 35.2837 41.9523 35.0791C42.4902 34.8746 42.903 34.5905 43.1909 34.2269C43.4788 33.8632 43.6265 33.4466 43.6341 32.9769C43.6265 32.5375 43.4902 32.1625 43.225 31.8519C42.9598 31.5337 42.5508 31.2609 41.9977 31.0337C41.4523 30.7988 40.7553 30.5829 39.9068 30.3859L37.475 29.8178C35.4598 29.3556 33.8727 28.6094 32.7136 27.5791C31.5545 26.5412 30.9788 25.1397 30.9864 23.3746C30.9788 21.9352 31.3652 20.6738 32.1455 19.5905C32.9258 18.5072 34.0053 17.6625 35.3841 17.0564C36.7629 16.4503 38.3348 16.1473 40.1 16.1473C41.903 16.1473 43.4674 16.4541 44.7932 17.0678C46.1265 17.6738 47.1606 18.5261 47.8955 19.6246C48.6303 20.7231 49.0053 21.9958 49.0205 23.4428H43.6341ZM64.7591 23.4428C64.6833 22.6094 64.3462 21.9617 63.7477 21.4996C63.1568 21.0299 62.3121 20.795 61.2136 20.795C60.4864 20.795 59.8803 20.8897 59.3955 21.0791C58.9106 21.2685 58.547 21.5299 58.3045 21.8632C58.0621 22.189 57.9371 22.564 57.9295 22.9882C57.9144 23.3367 57.9826 23.6435 58.1341 23.9087C58.2932 24.1738 58.5205 24.4087 58.8159 24.6132C59.1189 24.8102 59.4826 24.9844 59.9068 25.1359C60.3311 25.2875 60.8083 25.42 61.3386 25.5337L63.3386 25.9882C64.4902 26.2382 65.5053 26.5716 66.3841 26.9882C67.2705 27.4049 68.0129 27.9011 68.6114 28.4769C69.2174 29.0526 69.6758 29.7155 69.9864 30.4655C70.297 31.2155 70.4561 32.0564 70.4636 32.9882C70.4561 34.4579 70.0848 35.7193 69.35 36.7723C68.6152 37.8253 67.5583 38.6322 66.1795 39.1928C64.8083 39.7534 63.153 40.0337 61.2136 40.0337C59.2667 40.0337 57.5697 39.742 56.1227 39.1587C54.6758 38.5753 53.5508 37.689 52.7477 36.4996C51.9447 35.3102 51.5318 33.8064 51.5091 31.9882H56.8955C56.9409 32.7382 57.1417 33.3632 57.4977 33.8632C57.8538 34.3632 58.3424 34.742 58.9636 34.9996C59.5924 35.2572 60.3197 35.3859 61.1455 35.3859C61.903 35.3859 62.547 35.2837 63.0773 35.0791C63.6152 34.8746 64.028 34.5905 64.3159 34.2269C64.6038 33.8632 64.7515 33.4466 64.7591 32.9769C64.7515 32.5375 64.6152 32.1625 64.35 31.8519C64.0848 31.5337 63.6758 31.2609 63.1227 31.0337C62.5773 30.7988 61.8803 30.5829 61.0318 30.3859L58.6 29.8178C56.5848 29.3556 54.9977 28.6094 53.8386 27.5791C52.6795 26.5412 52.1038 25.1397 52.1114 23.3746C52.1038 21.9352 52.4902 20.6738 53.2705 19.5905C54.0508 18.5072 55.1303 17.6625 56.5091 17.0564C57.8879 16.4503 59.4598 16.1473 61.225 16.1473C63.028 16.1473 64.5924 16.4541 65.9182 17.0678C67.2515 17.6738 68.2856 18.5261 69.0205 19.6246C69.7553 20.7231 70.1303 21.9958 70.1455 23.4428H64.7591Z" fill="#E7E7E7"/>
</g>
<defs>
<filter id="filter0_d_79_5" x="9.80453" y="16.1473" width="60.6591" height="24.8864" filterUnits="userSpaceOnUse" color-interpolation-filters="sRGB">
<feFlood flood-opacity="0" result="BackgroundImageFix"/>
<feColorMatrix in="SourceAlpha" type="matrix" values="0 0 0 0 0 0 0 0 0 0 0 0 0 0 0 0 0 0 127 0" result="hardAlpha"/>
<feOffset dy="1"/>
<feComposite in2="hardAlpha" operator="out"/>
<feColorMatrix type="matrix" values="0 0 0 0 0 0 0 0 0 0 0 0 0 0 0 0 0 0 0.25 0"/>
<feBlend mode="normal" in2="BackgroundImageFix" result="effect1_dropShadow_79_5"/>
<feBlend mode="normal" in="SourceGraphic" in2="effect1_dropShadow_79_5" result="shape"/>
</filter>
</defs>
</svg>
