<svg width="81" height="56" viewBox="0 0 81 56" fill="none" xmlns="http://www.w3.org/2000/svg">
<rect x="0.420135" y="0.73822" width="80" height="55" rx="5" fill="#E7E7E7"/>
<g filter="url(#filter0_d_79_4)">
<path d="M10.1815 39.7382V16.4655H19.886C21.6285 16.4655 23.0868 16.7117 24.261 17.2041C25.4429 17.6966 26.3292 18.3859 26.9201 19.2723C27.5186 20.1587 27.8179 21.1852 27.8179 22.3519C27.8179 23.2382 27.6323 24.0299 27.261 24.7269C26.8898 25.4163 26.3785 25.9882 25.727 26.4428C25.0754 26.8973 24.3217 27.2155 23.4656 27.3973V27.6246C24.405 27.67 25.2724 27.9238 26.0679 28.3859C26.8709 28.8481 27.5148 29.492 27.9997 30.3178C28.4845 31.1359 28.727 32.1056 28.727 33.2269C28.727 34.4769 28.4088 35.5943 27.7724 36.5791C27.136 37.5564 26.2156 38.3291 25.011 38.8973C23.8065 39.4579 22.3444 39.7382 20.6247 39.7382H10.1815ZM15.8065 35.2041H19.2838C20.5035 35.2041 21.4012 34.9731 21.977 34.5109C22.5603 34.0488 22.852 33.4049 22.852 32.5791C22.852 31.9806 22.7118 31.4655 22.4315 31.0337C22.1512 30.5943 21.7535 30.2572 21.2383 30.0223C20.7232 29.7799 20.1057 29.6587 19.386 29.6587H15.8065V35.2041ZM15.8065 26.0337H18.9201C19.5338 26.0337 20.0792 25.9314 20.5565 25.7269C21.0338 25.5223 21.405 25.2269 21.6701 24.8405C21.9429 24.4541 22.0792 23.9882 22.0792 23.4428C22.0792 22.6625 21.8027 22.0488 21.2497 21.6019C20.6967 21.1549 19.9504 20.9314 19.011 20.9314H15.8065V26.0337ZM44.011 23.4428C43.9353 22.6094 43.5982 21.9617 42.9997 21.4996C42.4088 21.0299 41.5641 20.795 40.4656 20.795C39.7383 20.795 39.1323 20.8897 38.6474 21.0791C38.1626 21.2685 37.7989 21.5299 37.5565 21.8632C37.3141 22.189 37.1891 22.564 37.1815 22.9882C37.1663 23.3367 37.2345 23.6435 37.386 23.9087C37.5451 24.1738 37.7724 24.4087 38.0679 24.6132C38.3709 24.8102 38.7345 24.9844 39.1588 25.1359C39.583 25.2875 40.0603 25.42 40.5906 25.5337L42.5906 25.9882C43.7421 26.2382 44.7573 26.5716 45.636 26.9882C46.5224 27.4049 47.2648 27.9011 47.8633 28.4769C48.4694 29.0526 48.9277 29.7155 49.2383 30.4655C49.5489 31.2155 49.708 32.0564 49.7156 32.9882C49.708 34.4579 49.3368 35.7193 48.602 36.7723C47.8671 37.8253 46.8103 38.6322 45.4315 39.1928C44.0603 39.7534 42.405 40.0337 40.4656 40.0337C38.5186 40.0337 36.8217 39.742 35.3747 39.1587C33.9277 38.5753 32.8027 37.689 31.9997 36.4996C31.1967 35.3102 30.7838 33.8064 30.761 31.9882H36.1474C36.1929 32.7382 36.3936 33.3632 36.7497 33.8632C37.1057 34.3632 37.5944 34.742 38.2156 34.9996C38.8444 35.2572 39.5717 35.3859 40.3974 35.3859C41.155 35.3859 41.7989 35.2837 42.3292 35.0791C42.8671 34.8746 43.28 34.5905 43.5679 34.2269C43.8557 33.8632 44.0035 33.4466 44.011 32.9769C44.0035 32.5375 43.8671 32.1625 43.602 31.8519C43.3368 31.5337 42.9277 31.2609 42.3747 31.0337C41.8292 30.7988 41.1323 30.5829 40.2838 30.3859L37.852 29.8178C35.8368 29.3556 34.2497 28.6094 33.0906 27.5791C31.9315 26.5412 31.3557 25.1397 31.3633 23.3746C31.3557 21.9352 31.7421 20.6738 32.5224 19.5905C33.3027 18.5072 34.3823 17.6625 35.761 17.0564C37.1398 16.4503 38.7118 16.1473 40.477 16.1473C42.28 16.1473 43.8444 16.4541 45.1701 17.0678C46.5035 17.6738 47.5376 18.5261 48.2724 19.6246C49.0073 20.7231 49.3823 21.9958 49.3974 23.4428H44.011ZM65.136 23.4428C65.0603 22.6094 64.7232 21.9617 64.1247 21.4996C63.5338 21.0299 62.6891 20.795 61.5906 20.795C60.8633 20.795 60.2573 20.8897 59.7724 21.0791C59.2876 21.2685 58.9239 21.5299 58.6815 21.8632C58.4391 22.189 58.3141 22.564 58.3065 22.9882C58.2913 23.3367 58.3595 23.6435 58.511 23.9087C58.6701 24.1738 58.8974 24.4087 59.1929 24.6132C59.4959 24.8102 59.8595 24.9844 60.2838 25.1359C60.708 25.2875 61.1853 25.42 61.7156 25.5337L63.7156 25.9882C64.8671 26.2382 65.8823 26.5716 66.761 26.9882C67.6474 27.4049 68.3898 27.9011 68.9883 28.4769C69.5944 29.0526 70.0527 29.7155 70.3633 30.4655C70.6739 31.2155 70.833 32.0564 70.8406 32.9882C70.833 34.4579 70.4618 35.7193 69.727 36.7723C68.9921 37.8253 67.9353 38.6322 66.5565 39.1928C65.1853 39.7534 63.53 40.0337 61.5906 40.0337C59.6436 40.0337 57.9467 39.742 56.4997 39.1587C55.0527 38.5753 53.9277 37.689 53.1247 36.4996C52.3217 35.3102 51.9088 33.8064 51.886 31.9882H57.2724C57.3179 32.7382 57.5186 33.3632 57.8747 33.8632C58.2307 34.3632 58.7194 34.742 59.3406 34.9996C59.9694 35.2572 60.6967 35.3859 61.5224 35.3859C62.28 35.3859 62.9239 35.2837 63.4542 35.0791C63.9921 34.8746 64.405 34.5905 64.6929 34.2269C64.9807 33.8632 65.1285 33.4466 65.136 32.9769C65.1285 32.5375 64.9921 32.1625 64.727 31.8519C64.4618 31.5337 64.0527 31.2609 63.4997 31.0337C62.9542 30.7988 62.2573 30.5829 61.4088 30.3859L58.977 29.8178C56.9618 29.3556 55.3747 28.6094 54.2156 27.5791C53.0565 26.5412 52.4807 25.1397 52.4883 23.3746C52.4807 21.9352 52.8671 20.6738 53.6474 19.5905C54.4277 18.5072 55.5073 17.6625 56.886 17.0564C58.2648 16.4503 59.8368 16.1473 61.602 16.1473C63.405 16.1473 64.9694 16.4541 66.2951 17.0678C67.6285 17.6738 68.6626 18.5261 69.3974 19.6246C70.1323 20.7231 70.5073 21.9958 70.5224 23.4428H65.136Z" fill="#480505"/>
</g>
<defs>
<filter id="filter0_d_79_4" x="10.1815" y="16.1473" width="60.6591" height="24.8864" filterUnits="userSpaceOnUse" color-interpolation-filters="sRGB">
<feFlood flood-opacity="0" result="BackgroundImageFix"/>
<feColorMatrix in="SourceAlpha" type="matrix" values="0 0 0 0 0 0 0 0 0 0 0 0 0 0 0 0 0 0 127 0" result="hardAlpha"/>
<feOffset dy="1"/>
<feComposite in2="hardAlpha" operator="out"/>
<feColorMatrix type="matrix" values="0 0 0 0 0 0 0 0 0 0 0 0 0 0 0 0 0 0 0.25 0"/>
<feBlend mode="normal" in2="BackgroundImageFix" result="effect1_dropShadow_79_4"/>
<feBlend mode="normal" in="SourceGraphic" in2="effect1_dropShadow_79_4" result="shape"/>
</filter>
</defs>
</svg>
